<?xml version="1.0" standalone="no"?><!DOCTYPE svg PUBLIC "-//W3C//DTD SVG 1.1//EN" "http://www.w3.org/Graphics/SVG/1.1/DTD/svg11.dtd"><svg t="1635339502182" class="icon" viewBox="0 0 1024 1024" version="1.1" xmlns="http://www.w3.org/2000/svg" p-id="1645" xmlns:xlink="http://www.w3.org/1999/xlink" width="32" height="32"><defs><style type="text/css"></style></defs><path d="M682.666667 85.333333H341.333333c-47.061333 0-85.333333 38.272-85.333333 85.333334v682.666666c0 47.061333 38.272 85.333333 85.333333 85.333334h341.333334c47.061333 0 85.333333-38.272 85.333333-85.333334V170.666667c0-47.061333-38.272-85.333333-85.333333-85.333334zM341.333333 853.333333V170.666667h341.333334l0.042666 682.666666H341.333333zM128 298.666667h85.333333V213.333333H128v21.333334H85.333333v42.666666h42.666667z m768-85.333334h-85.333333v85.333334h85.333333v-21.333334h42.666667v-42.666666h-42.666667zM128 469.333333h85.333333V384H128v21.333333H85.333333v42.666667h42.666667z m768-85.333333h-85.333333v85.333333h85.333333v-21.333333h42.666667v-42.666667h-42.666667zM128 640h85.333333v-85.333333H128v21.333333H85.333333v42.666667h42.666667z m768-85.333333h-85.333333v85.333333h85.333333v-21.333333h42.666667v-42.666667h-42.666667zM128 810.666667h85.333333v-85.333334H128v21.333334H85.333333v42.666666h42.666667z m768-85.333334h-85.333333v85.333334h85.333333v-21.333334h42.666667v-42.666666h-42.666667z" p-id="1646" fill="#d81e06"></path></svg>